<?xml version="1.0" encoding="utf-8"?>
<!-- Generator: Adobe Illustrator 21.1.0, SVG Export Plug-In . SVG Version: 6.00 Build 0)  -->
<svg version="1.1" id="Ebene_1" xmlns="http://www.w3.org/2000/svg" xmlns:xlink="http://www.w3.org/1999/xlink" x="0px" y="0px"
	 viewBox="0 0 1133.9 566.9" style="enable-background:new 0 0 1133.9 566.9;" xml:space="preserve">
<style type="text/css">
	.st0{fill:#C3185B;}
	.st1{fill:#FFFFFF;}
	.st2{fill:#F18FB1;}
	.st3{fill:#E9407A;}
</style>
<rect x="519.1" y="111.1" class="st0" width="97.7" height="343.5"/>
<path class="st0" d="M854.6,111.1h-18.4c-94.9,0-171.7,76.9-171.7,171.7v0c0,94.9,76.9,171.7,171.7,171.7h18.4"/>
<path class="st0" d="M1094.5,200.7v-89.9H916.9v343.5h177.6v-89.9h-79.3v-37.3c22.6-2.1,40.3-21.1,40.3-44.3s-17.7-42.2-40.3-44.3
	v-37.8H1094.5z"/>
<path class="st0" d="M228.7,200.7v-89.9H39.4v343.5h97.8l0.5-89.9v-37.3C160.3,325,178,306,178,282.8s-17.7-42.2-40.3-44.3v-37.8
	H228.7z"/>
<path class="st0" d="M349.3,416.5c21.9,0,39.9,16.7,42,38.1h88.4L349.3,111.1L218.9,454.6h88.4C309.3,433.2,327.3,416.5,349.3,416.5
	z"/>
<path class="st1" d="M879.9,383.4c-55.9,0-101.5-45.5-101.5-101.5s45.5-101.5,101.5-101.5c56,0,101.5,45.5,101.5,101.5
	S935.8,383.4,879.9,383.4z"/>
<path class="st2" d="M879.9,362.1c-44.2,0-80.2-36-80.2-80.2s36-80.2,80.2-80.2c44.2,0,80.2,36,80.2,80.2S924.1,362.1,879.9,362.1z"
	/>
<path class="st3" d="M879.9,342.8c-33.6,0-60.9-27.3-60.9-60.9s27.3-60.9,60.9-60.9c33.6,0,60.9,27.3,60.9,60.9
	S913.5,342.8,879.9,342.8z"/>
<path class="st0" d="M879.9,320.5c-21.3,0-38.6-17.3-38.6-38.6s17.3-38.6,38.6-38.6c21.3,0,38.6,17.3,38.6,38.6
	S901.1,320.5,879.9,320.5z"/>
</svg>
