<?xml version="1.0" encoding="UTF-8"?>
<svg width="2055.1" height="343.8" version="1.1" viewBox="0 0 2055.1001 343.79997" xml:space="preserve" xmlns="http://www.w3.org/2000/svg"><style type="text/css">
	.st0{fill:#C3185B;}
	.st1{fill:#FFFFFF;}
	.st2{fill:#F18FB1;}
	.st3{fill:#E9407A;}
</style><rect class="st0" x="979.7" y=".29999" width="97.7" height="343.5"/><path class="st0" d="m1315.2 0.3h-18.4c-94.9 0-171.7 76.9-171.7 171.7 0 94.9 76.9 171.7 171.7 171.7h18.4"/><path class="st0" d="m1555.1 89.9v-89.9h-177.6v343.5h177.6v-89.9h-79.3v-37.3c22.6-2.1 40.3-21.1 40.3-44.3s-17.7-42.2-40.3-44.3v-37.8z"/><path class="st0" d="m689.3 89.9v-89.9h-189.3v343.5h97.8l0.5-89.9v-37.3c22.6-2.1 40.3-21.1 40.3-44.3s-17.7-42.2-40.3-44.3v-37.8z"/><path class="st0" d="m809.9 305.7c21.9 0 39.9 16.7 42 38.1h88.4l-130.4-343.5-130.4 343.5h88.4c2-21.4 20-38.1 42-38.1z"/><path class="st1" d="m1340.5 272.6c-55.9 0-101.5-45.5-101.5-101.5s45.5-101.5 101.5-101.5 101.5 45.5 101.5 101.5-45.6 101.5-101.5 101.5z"/><path class="st2" d="m1340.5 251.3c-44.2 0-80.2-36-80.2-80.2s36-80.2 80.2-80.2 80.2 36 80.2 80.2-36 80.2-80.2 80.2z"/><path class="st3" d="m1340.5 232c-33.6 0-60.9-27.3-60.9-60.9s27.3-60.9 60.9-60.9 60.9 27.3 60.9 60.9-27.3 60.9-60.9 60.9z"/><path class="st0" d="m1340.5 209.7c-21.3 0-38.6-17.3-38.6-38.6s17.3-38.6 38.6-38.6 38.6 17.3 38.6 38.6-17.4 38.6-38.6 38.6z"/></svg>
